# xmcd
#
# Track frame offsets:
#	150
#	13520
#	27400
#	41253
#	55115
#	68733
#	82563
#	96258
#	110025
#	123758
#	137628
#	151450
#	165410
#	179410
#
# Disc length: 2576 seconds
#
# Revision: 0
# Processed by: cddbd v1.5.2PL0 Copyright (c) Steve Scherf et al.
# Submitted via: audiograbber 1.83.01
#
DISCID=a50a0e0e
DTITLE=Das Escolas De Samba Do Grupo La-Carnival 90 - Samba De Enredo
DYEAR=1989
DGENRE=Salsa
TTITLE0=Os herois da resistencia
TTITLE1=Com boca no mundo
TTITLE2=Historias de nossa historia
TTITLE3=Se esta terra, se esta terra fosse mia
TTITLE4=Todo mundo nasceu nu
TTITLE5=Sou amigo do rei
TTITLE6=E de ouro e prata esse chao
TTITLE7=E o samba sambou
TTITLE8=E deu a louca no barroco
TTITLE9=Vira, virou, a mocidade chegou
TTITLE10=Landsdorff delirio na sapucai
TTITLE11=Terra Brasilis o que se plantou deu
TTITLE12=E o borel descobriu navegar foi preciso
TTITLE13=Sonhar com rei da Joao
EXTD=
EXTT0=
EXTT1=
EXTT2=
EXTT3=
EXTT4=
EXTT5=
EXTT6=
EXTT7=
EXTT8=
EXTT9=
EXTT10=
EXTT11=
EXTT12=
EXTT13=
PLAYORDER=
